<?xml version="1.0" ?><svg style="enable-background:new 0 0 93.388 75.594;" version="1.1" viewBox="0 0 93.388 75.594" xml:space="preserve" xmlns="http://www.w3.org/2000/svg" xmlns:xlink="http://www.w3.org/1999/xlink"><g id="search"><g><path d="M57.158,42.7l-2.041,1.076l-6.061-4.054l-0.669,0.762l5.607,3.994l-0.503,0.572c-0.836,0.953-1.522,2.376-2.059,4.268    c-0.615,2.047-0.683,3.534-0.204,4.461l-9.422-5.318c-3.705,3.835-8.748,5.736-15.131,5.702    c-6.593-0.05-12.336-2.224-17.228-6.518C4.747,43.517,1.864,39.496,0.8,35.581c-0.656-2.264-0.909-7.07-0.758-14.419    c0.685,6.845,3.648,12.568,8.89,17.17c5.591,4.909,11.841,7.752,18.752,8.531c7.753,0.845,13.986-1.419,18.699-6.788    c0.697-0.794,1.534-1.747,2.51-2.859L57.158,42.7z"/><path d="M51.853,21.927c-0.862-5.425-3.85-10.383-8.965-14.873c-5.147-4.518-11.186-6.866-18.116-7.044    C17.392-0.17,11.498,2.25,7.092,7.269c-8.952,10.197-7.9,20.149,3.154,29.854c5.401,4.742,11.505,7.4,18.311,7.975    c7.472,0.653,13.507-1.642,18.109-6.884C51.073,33.196,52.801,27.767,51.853,21.927z M44.868,36.804    c-4.156,4.734-9.637,6.812-16.444,6.236c-6.202-0.495-11.765-2.904-16.69-7.227C1.727,27.029,0.767,18.03,8.855,8.817    c4.016-4.574,9.369-6.794,16.057-6.66c6.326,0.098,11.825,2.197,16.495,6.296c4.67,4.1,7.405,8.61,8.204,13.53    C50.465,27.289,48.884,32.23,44.868,36.804z"/><path d="M38.683,13.453c6.735,5.913,8.805,13.102,6.21,21.568c-0.974-7.605-3.875-13.527-8.704-17.766    c-4.701-4.127-9.898-6.074-15.589-5.838c-5.692,0.235-10.666,2.619-14.924,7.149c0.623-1.927,1.66-3.717,3.11-5.369    c3.625-4.129,8.548-6.051,14.767-5.768C29.383,7.708,34.426,9.716,38.683,13.453z"/><path d="M31.133,32.963c-1.589,0.913-3.873,0.791-6.854-0.363c-2.456-0.918-4.541-2.131-6.257-3.637    c-2.097-1.84-3.291-3.845-3.581-6.012C19.638,25.488,25.202,28.826,31.133,32.963z"/><path d="M91.741,65.298c1.08,0.948,1.628,2.245,1.646,3.892c0.016,1.646-0.491,3.057-1.522,4.232    c-1.088,1.239-2.525,1.947-4.311,2.123c-1.547,0.16-2.776-0.075-3.685-0.704L53.183,54.82c-1.156-0.733-1.474-2.165-0.953-4.296    c0.468-2.007,1.442-3.853,2.92-5.537c1.004-1.144,2.281-1.541,3.832-1.192L87.85,62.81L91.741,65.298z"/></g></g><g id="Слой_1"/></svg>